<svg color="#000000" class="Button_icon__iWd6o" xmlns="http://www.w3.org/2000/svg" fill="none" viewBox="0 0 24 24" width="24" height="24"><path fill="#4D4F56" fill-rule="evenodd" d="M16.134 2s.282 1.623-1.023 3.21c-1.41 1.658-2.998 1.376-2.998 1.376s-.282-1.306.882-2.858C14.3 2 16.134 2 16.134 2Zm3.633 6.808s-2.151 1.093-2.151 3.774c0 3.034 2.68 4.092 2.68 4.092s-1.87 5.29-4.409 5.29c-.573 0-1.087-.188-1.608-.379-.537-.197-1.081-.396-1.708-.396-.705 0-1.4.25-2.018.473-.493.178-.937.338-1.297.338C6.928 22 4 16.991 4 12.935c0-3.986 2.47-6.067 4.797-6.103.884 0 1.66.3 2.308.55.463.179.86.332 1.184.332.262 0 .616-.14 1.047-.311.671-.266 1.528-.606 2.516-.606 2.822 0 3.915 2.01 3.915 2.01Z" clip-rule="evenodd"></path></svg>