<svg class="Button_icon__iWd6o" xmlns="http://www.w3.org/2000/svg" xmlns:xlink="http://www.w3.org/1999/xlink" viewBox="0 0 24 24" width="24" height="24"><defs><path id="social-facebook-s47nnyebaa" d="M12 2C6.477 2 2 6.505 2 12.061c0 5.022 3.657 9.184 8.438 9.939v-7.03h-2.54V12.06h2.54V9.845c0-2.522 1.492-3.915 3.777-3.915 1.094 0 2.238.197 2.238.197v2.476h-1.26c-1.243 0-1.63.775-1.63 1.57v1.888h2.773l-.443 2.908h-2.33V22c4.78-.755 8.437-4.917 8.437-9.939C22 6.505 17.523 2 12 2z"></path></defs><g fill="none" fill-rule="evenodd"><g><path d="M0 0H24V24H0z"></path><use fill="#1A77F3" xlink:href="#social-facebook-s47nnyebaa"></use></g></g></svg>